<?xml version="1.0" encoding="utf-8"?>
<!-- Generator: Adobe Illustrator 17.0.0, SVG Export Plug-In . SVG Version: 6.00 Build 0)  -->
<!DOCTYPE svg PUBLIC "-//W3C//DTD SVG 1.1//EN" "http://www.w3.org/Graphics/SVG/1.1/DTD/svg11.dtd">
<svg version="1.1" id="Слой_1" xmlns="http://www.w3.org/2000/svg" xmlns:xlink="http://www.w3.org/1999/xlink" x="0px" y="0px"
	 width="800.632px" height="800.586px" viewBox="0 -142.187 800.632 800.586" enable-background="new 0 -142.187 800.632 800.586"
	 xml:space="preserve">
<rect x="0.632" y="437.96" fill="#E46467" width="800" height="220.439"/>
<rect y="253.164" fill="#F6886B" width="800" height="185.49"/>
<rect y="65.893" fill="#FDB66E" width="800" height="187.271"/>
<g id="OBJECTS">
	<path fill="#9D4B65" d="M413.559,453.255l-4.285,2.622l-4.642-0.238l1.143-6.913l-2.143-2.384l-7.714,8.581h-5.928
		c-1.34,0-2.286,1.21-2.286,2.701v0.318c0,1.491,0.944,2.701,2.286,2.701h20.319l2.617-2.86h0.014L413.559,453.255z"/>
</g>
<g id="DESIGNED_BY_FREEPIK">
	<polygon fill="#B77495" points="339.598,658.231 339.598,641.813 344.762,641.813 344.762,627.741 352.943,627.741 
		352.943,639.254 357.777,639.254 357.777,610.256 377.484,610.256 377.484,636.908 379.716,636.908 379.716,634.244 
		385.479,634.244 385.479,630.938 396.634,630.938 396.634,634.244 400.725,634.244 400.725,636.482 406.487,636.482 
		406.487,617.932 415.413,617.932 415.413,612.602 430.657,612.602 430.657,641.6 432.33,641.6 432.33,634.244 439.582,634.244 
		439.582,631.151 442.37,631.151 442.37,627.741 447.762,627.741 447.762,594.904 458.174,594.904 458.174,592.132 461.706,592.132 
		461.706,595.757 466.726,595.757 466.726,600.661 472.861,600.661 472.861,597.675 476.022,597.675 476.022,599.595 
		480.67,599.595 480.67,589.359 498.89,589.359 498.89,597.249 501.307,597.249 501.307,579.765 502.979,579.765 502.979,576.78 
		504.839,576.78 504.839,570.17 512.277,570.17 512.277,577.846 514.508,577.846 514.508,594.051 515.437,595.117 515.437,604.072 
		516.924,604.072 516.924,616.866 520.828,616.866 520.828,584.456 522.873,584.456 522.873,581.257 527.336,581.257 
		527.336,583.816 533.843,583.816 533.843,600.021 535.145,600.021 535.145,595.33 551.505,595.33 551.505,599.808 553.364,599.808 
		553.364,640.106 555.595,640.106 555.595,645.864 557.455,645.864 557.455,635.417 558.757,635.417 558.757,627.313 
		560.244,627.313 560.244,624.329 563.219,624.329 563.219,626.887 565.449,626.887 565.449,641.386 568.423,641.386 
		568.423,627.953 571.027,627.953 571.027,624.542 573.258,624.542 573.258,626.887 580.323,626.887 580.323,623.262 
		582.554,623.262 582.554,626.887 585.9,626.887 585.9,638.615 592.222,638.615 592.222,631.366 604.864,631.366 604.864,635.843 
		607.468,635.843 607.468,632.858 615.648,632.858 615.648,630.725 620.854,630.725 620.854,644.372 623.084,644.372 623.084,641.6 
		625.316,641.6 625.316,638.402 637.772,638.402 637.772,643.519 641.119,643.519 641.119,647.57 644.465,647.57 644.465,646.077 
		651.901,646.077 651.901,658.231 	"/>
	<polygon fill="#B77495" points="157.234,657.613 157.234,632.597 166.265,632.597 166.265,642.128 172.517,642.128 
		172.517,635.575 174.949,635.575 174.949,577.209 183.633,577.209 183.633,566.488 192.664,566.488 192.664,574.826 
		205.171,574.826 205.171,592.694 209.338,592.694 209.338,563.511 211.77,563.511 211.77,550.8 215.243,550.8 215.243,556.363 
		225.316,556.363 225.316,598.053 230.875,598.053 230.875,583.165 234.001,583.165 234.001,569.467 236.779,569.467 
		236.779,562.319 246.505,562.319 246.505,598.65 252.064,598.65 252.064,560.532 262.485,560.532 262.485,584.952 268.737,584.952 
		268.737,558.747 284.716,558.747 284.716,596.267 291.315,596.267 291.315,605.694 295.484,605.694 295.484,563.511 
		298.262,563.511 298.262,557.555 300.694,557.555 300.694,550.8 308.683,550.8 308.683,558.149 312.157,558.149 312.157,583.76 
		323.967,583.76 323.967,612.943 329.177,612.943 329.177,601.628 338.556,601.628 338.556,568.87 342.377,568.87 342.377,558.149 
		344.808,558.149 344.808,550.8 347.241,550.8 347.241,527.18 350.019,527.18 350.019,550.8 353.493,550.8 353.493,560.532 
		355.925,560.532 355.925,569.467 358.703,569.467 358.703,602.223 370.86,602.223 370.86,584.952 373.987,584.952 373.987,564.7 
		376.07,564.7 376.07,554.576 383.366,554.576 383.366,564.7 386.144,564.7 386.144,587.332 388.576,587.332 388.576,612.943 
		398.996,612.943 398.996,584.952 401.428,584.952 401.428,601.628 406.986,601.628 406.986,593.886 418.101,593.886 
		418.101,626.047 422.617,626.047 422.617,617.113 425.744,617.113 425.744,609.37 430.259,609.37 430.259,620.091 434.079,620.091 
		434.079,593.886 435.469,593.886 435.469,608.776 439.638,608.776 439.638,604.009 449.016,604.009 449.016,612.348 
		455.963,612.348 455.963,621.877 461.869,621.877 461.869,632.003 466.385,632.003 466.385,623.069 477.499,623.069 
		477.499,612.348 480.279,612.348 480.279,629.619 485.49,629.619 485.49,608.179 492.436,608.179 492.436,619.495 503.205,619.495 
		503.205,626.641 511.194,626.641 511.194,637.363 517.794,637.363 517.794,632.003 521.962,632.003 521.962,657.613 	"/>
	<g>
		<polygon fill="#89455F" points="161.808,653.052 161.808,649.951 190.198,649.951 190.198,623.981 190.198,618.943 
			204.73,618.943 204.73,586.383 217.235,586.383 217.235,618.943 226.023,618.943 226.023,607.314 230.416,607.314 
			230.416,601.112 259.144,601.112 259.144,607.314 263.538,607.314 263.538,618.943 280.436,618.943 280.436,595.298 
			289.224,595.298 289.224,618.943 297.673,618.943 297.673,586.383 301.391,586.383 301.391,581.732 330.456,581.732 
			330.456,586.383 334.174,586.383 334.174,599.174 343.975,599.174 343.975,612.353 362.564,612.353 362.564,620.105 
			390.954,620.105 390.954,587.546 402.445,587.546 402.445,580.957 408.19,580.957 408.19,587.546 419.681,587.546 
			419.681,603.826 429.145,603.826 429.145,613.904 466.322,613.904 466.322,582.895 507.216,582.895 507.216,595.686 
			535.268,595.686 535.268,606.539 548.787,606.539 548.787,583.67 554.195,583.67 554.195,579.794 566.362,579.794 566.362,583.67 
			571.093,583.67 571.093,606.539 584.95,606.539 584.95,620.493 598.807,620.493 598.807,614.291 606.918,614.291 606.918,629.02 
			623.479,629.02 623.479,648.401 635.646,648.401 635.646,652.664 635.646,655.765 161.808,655.765 		"/>
	</g>
	<path fill="#722E46" d="M647.734,623.86v-22.501h-19.997v28.126h-3.772v9.953h-9.433v-5.626h-11.26v-3.394h13.146v-1.866h-13.146
		v-4.474h-1.627v4.474h-2.582v0.933h-3.018v-5.193h-6.416v5.193h-10.564v5.193h-11.697v-8.222h-1.886v-6.058h-1.828v-9.451h16.542
		v-1.866h-16.542v-1.229h-1.627v1.229h-5.978v1.866h5.978v9.452h-7.865v12.116h-22.639v-9.087h-2.205v-2.961h9.374V618.6h-9.374
		v-0.821h-1.627v0.821h-1.45v1.866h1.45v2.961h-6.732v9.953h-5.035v-2.961h5.035v-1.866h-11.697v1.866h5.035v2.961h-7.298v4.328
		h-3.396v-2.164h-3.397V601.36h-2.264v-5.193h-7.168v40.242h-13.583v-40.242h-5.66v3.461h-3.018v27.26h-4.905v7.357h-2.264v-7.357
		h-9.433v-4.759h-4.151v-5.626h-3.773v-12.549h-6.038v4.759h-15.092v18.174h-7.923v-6.058h-9.432v-12.117h-23.393v14.28h-3.64v3.894
		h-2.397v-24.664h-2.641v-6.058h-4.528v5.193h-4.905v20.77h-2.264v4.759h-2.641v-14.712h-18.489v12.116h-6.038v5.193h-3.396v3.029
		h-3.396v-3.461l-2.075-2.38v-5.41h-9.244v12.549h-3.396v-3.029h-3.773v-34.618h-3.018v-9.52h-3.396v-4.76h-4.528v-3.94h-6.791
		v6.969h-3.772v7.357h-2.264v25.508h-4.151v-4.738h-5.282v6.924h-6.038v-19.905l-2.264-2.597v-9.087h-12.451v6.491h-6.415v12.982
		h-3.018v-2.596h-3.773l-2.264,2.596l-0.98,1.124v30.031h-4.302v-29.856h-3.773v-3.029h-5.659v4.76h-5.279v7.721h-2.959v-3.394
		h-1.627v3.394h-7.11v1.866h7.11v9.885h-0.696v8.221h-12.451v-8.221h-4.151v-9.52l-1.698-1.946v-4.976h-6.98v13.414h-9.432v8.654
		h-12.829l-1.509-1.73h-8.301v23.367h492.765V623.86H647.734z M219.867,622.994h-2.641v7.357h-0.318v-9.885h2.959V622.994z
		 M601.645,633.813h-2.582v-3.394h2.582V633.813z"/>
</g>
<rect x="0.632" y="-142.187" fill="#FDCC85" width="800" height="208.079"/>
</svg>
