
<svg version="1.1" id="Слой_1" xmlns="http://www.w3.org/2000/svg" xmlns:xlink="http://www.w3.org/1999/xlink" x="0px" y="0px"
	 width="16.687px" height="35.885px" viewBox="0 132.924 16.687 35.885" enable-background="new 0 132.924 16.687 35.885"
	 xml:space="preserve">
<g id="down">
	<path fill="#E6AC47" d="M5.229,141.229l2.975,0.036l2.975,0.036c0,0,2.418-1.156,1.27-3.99c0,0-0.707,1.2-1.723,0.904
		c0,0,0.167-3.742-2.422-5.29c-2.626,1.485-2.549,5.231-2.549,5.231c-1.022,0.272-1.7-0.945-1.7-0.945
		C2.839,140.015,5.229,141.229,5.229,141.229z"/>
	<path fill="#F6EB41" d="M5.862,141.237l2.341,0.028l2.341,0.028c0,0,2.471-0.903,1.568-3.133c0,0-1.125,0.938-1.924,0.704
		c0,0,0.132-2.945-1.906-4.163c-2.067,1.169-2.006,4.116-2.006,4.116c-0.804,0.214-1.947-0.751-1.947-0.751
		C3.373,140.274,5.862,141.237,5.862,141.237z"/>
	<path fill="#F0F0F0" d="M6.709,141.247l1.487,0.018l1.488,0.018c0,0,1.57-0.574,0.996-1.99c0,0-0.715,0.596-1.222,0.447
		c0,0,0.084-1.871-1.211-2.645c-1.313,0.743-1.274,2.615-1.274,2.615c-0.511,0.136-1.237-0.477-1.237-0.477
		C5.127,140.636,6.709,141.247,6.709,141.247z"/>
</g>
<g>
	<rect x="5.421" y="141.301" fill="#F4407C" width="5.952" height="0.638"/>
	<path fill="#F78F8F" d="M12.967,143.001H8.29H3.72c0,0-3.72,3.295-3.72,7.865c0,4.854,3.72,7.865,3.72,7.865h4.57h4.677
		c0,0,3.72-3.012,3.72-7.865C16.687,146.296,12.967,143.001,12.967,143.001z"/>
	<path id="glass" fill="#63D8F7" d="M12.157,144.489H4.53c0,0-3.068,2.82-3.068,6.59c0,4.003,3.068,6.59,3.068,6.59h7.627
		c0,0,3.068-2.587,3.068-6.59C15.225,147.31,12.157,144.489,12.157,144.489z"/>
	<g opacity="0.5">
		<path fill="#50A59C" d="M8.165,150.884c0.183,0.749,0.396,1.694,0.216,1.873c-0.275,0.274-0.481,0.285-0.481,0.285
			c-0.027-0.135-0.048-0.238-0.056-0.285l-0.032,0c0.061-0.05,0.09-0.087,0.09-0.087l-0.123-0.66
			c0.165,0.037,0.305-0.001,0.398-0.109c0.159-0.185-0.096-0.761-0.159-0.895c0.064-0.057,0.098-0.109,0.098-0.109
			s0-0.001-0.001-0.002L8.165,150.884z"/>
		<path fill="#50A59C" d="M8.165,150.884l-0.048,0.012c-0.008-0.021-0.084-0.206-0.444-0.639c-0.014-0.017-0.029-0.034-0.044-0.049
			c0.263,0.171,0.373,0,0.373,0C8.04,150.381,8.101,150.621,8.165,150.884z"/>
		<path fill="#50A59C" d="M6.369,149.867v0.245c0,0-0.161-0.07-0.328-0.06v-0.001c0,0,0.018-0.212,0.075-0.228
			C6.196,149.848,6.281,149.864,6.369,149.867z"/>
		<path fill="#50A59C" d="M7.285,150.016c-0.111-0.02-0.215-0.005-0.297,0.019c-0.108,0.031-0.178,0.078-0.178,0.078v-0.244
			l-0.049-0.003c0.174-0.013,0.327-0.071,0.453-0.164c0,0,0,0,0,0c0.014-0.002,0.702-0.114,0.751,0.305
			c0.006,0.048,0.019,0.117,0.037,0.202c0,0-0.11,0.171-0.373,0l0,0C7.516,150.091,7.396,150.036,7.285,150.016z"/>
		<path fill="#85DDB5" d="M7.235,150.733c-0.056-0.017-0.143,0.049-0.143,0.049s-0.061-0.201-0.121-0.201
			c-0.058,0-0.009,0.189-0.005,0.2c-0.002-0.005-0.021-0.044-0.048-0.084c0,0-0.032-0.415,0.071-0.663
			c0.082-0.024,0.185-0.039,0.297-0.019C7.163,150.24,7.235,150.733,7.235,150.733z"/>
		<path fill="#E2BFBC" d="M7.727,148.624c0.135,0.025,0.238,0.144,0.238,0.286c0,0.161-0.131,0.292-0.292,0.292
			c-0.04,0-0.079-0.008-0.114-0.023l-0.006-0.001c0.021-0.085,0.032-0.174,0.032-0.267l-0.01-0.275
			c0.03-0.011,0.063-0.017,0.097-0.017C7.692,148.619,7.709,148.621,7.727,148.624z"/>
		<path fill="#E2BFBC" d="M5.361,148.629c0.024-0.007,0.05-0.01,0.077-0.01v0.277c0,0.106,0.017,0.207,0.048,0.302
			c-0.016,0.003-0.031,0.004-0.048,0.004c-0.161,0-0.291-0.131-0.291-0.292C5.146,148.776,5.237,148.663,5.361,148.629z"/>
		<path fill="#3C2C17" d="M5.398,147.852c0.082,0.088,0.235,0.078,0.364,0.041c-0.199,0.178-0.324,0.437-0.324,0.725v0.001
			c-0.027,0-0.052,0.004-0.077,0.01c-0.173-0.676,0.032-0.763,0.032-0.763L5.398,147.852z"/>
		<path fill="#3C2C17" d="M8.092,156.967c0.128,0.075,0.261,0.176,0.227,0.256c-0.063,0.145-0.806-0.02-0.806-0.02l-0.027-0.265
			c0.182,0.085,0.398-0.077,0.398-0.077s0.031,0.014,0.077,0.036C7.998,156.915,8.045,156.939,8.092,156.967z"/>
		<path fill="#EACEC5" d="M7.78,152.011c-0.154-0.034-0.331-0.132-0.513-0.297c-0.378-0.342-0.636-0.867-0.585-0.931
			c0.05-0.062,0.155,0.08,0.16,0.088c-0.004-0.011-0.098-0.247-0.031-0.259c0.036-0.007,0.077,0.04,0.107,0.087
			c0.026,0.04,0.045,0.08,0.048,0.084c-0.003-0.012-0.053-0.2,0.005-0.2c0.06,0,0.121,0.201,0.121,0.201s0.087-0.067,0.143-0.049
			c0.056,0.017,0.028,0.189,0,0.263c0,0,0.137,0.252,0.438,0.48c-0.023-0.069-0.05-0.191-0.076-0.322l0.005-0.001
			c0.188,0.018,0.331-0.07,0.418-0.147c0.063,0.134,0.318,0.71,0.159,0.895C8.084,152.011,7.945,152.048,7.78,152.011z"/>
		<path fill="#0E6ECC" d="M7.597,151.155c0.026,0.131,0.054,0.253,0.076,0.322c-0.301-0.228-0.438-0.48-0.438-0.48
			c0.028-0.074,0.056-0.246,0-0.263c0,0-0.071-0.493,0.05-0.717c0.111,0.02,0.231,0.075,0.344,0.192l0,0
			c0.015,0.015,0.03,0.032,0.044,0.049c0.36,0.433,0.436,0.618,0.444,0.639c0.001,0.001,0.001,0.002,0.001,0.002
			s-0.034,0.052-0.098,0.109c-0.087,0.077-0.23,0.165-0.418,0.147L7.597,151.155z"/>
		<path fill="#EFB45E" d="M6.073,154.655c-0.164-0.05-0.281-0.127-0.281-0.127l0.126-1.672c0.192,0.091,0.568,0.231,1.021,0.212
			c0.455-0.019,0.74-0.2,0.873-0.311l0.032,0c0.009,0.047,0.029,0.15,0.056,0.285c0.101,0.502,0.295,1.436,0.295,1.436
			c-0.084,0.098-0.203,0.149-0.329,0.172c-0.157,0.028-0.324,0.014-0.449-0.007c-0.116-0.02-0.196-0.044-0.196-0.044l-0.072-1.106
			c-0.218,0.033-0.395,0.005-0.5-0.021l0.019,1.122c-0.058,0.04-0.12,0.067-0.181,0.082C6.342,154.713,6.195,154.692,6.073,154.655z
			"/>
		<path fill="#0E6ECC" d="M5.928,150.979l-0.277,0.641c-0.042-0.007-0.085-0.026-0.126-0.053c-0.108-0.07-0.211-0.194-0.288-0.304
			c-0.07-0.101-0.119-0.191-0.131-0.218c-0.03-0.069,0.535-0.794,0.741-0.932c0.059-0.039,0.127-0.056,0.193-0.06
			c0.167-0.01,0.328,0.06,0.328,0.06s0.257,0.215,0.442,0c0,0,0.07-0.046,0.178-0.078c-0.103,0.248-0.071,0.663-0.071,0.663
			c-0.031-0.046-0.071-0.093-0.107-0.087c-0.067,0.013,0.027,0.248,0.031,0.259c-0.005-0.007-0.11-0.15-0.16-0.088
			c-0.052,0.064,0.206,0.59,0.585,0.931c0.183,0.165,0.359,0.263,0.513,0.297l0.123,0.66c0,0-0.03,0.036-0.09,0.087
			c-0.133,0.111-0.418,0.292-0.873,0.311c-0.453,0.019-0.828-0.122-1.021-0.212c-0.089-0.042-0.138-0.073-0.138-0.073
			s0.058-0.585,0.088-0.93C5.889,151.621,5.914,151.219,5.928,150.979z"/>
		<path fill="#FFFFFF" d="M7.869,156.554c0.003,0.135,0.008,0.243,0.015,0.306c0,0-0.061-0.208-0.138-0.166
			c-0.077,0.043,0.138,0.166,0.138,0.166s-0.216,0.162-0.398,0.077l-0.01-0.343h0.001c0.153,0.055,0.391-0.04,0.391-0.04H7.869z"/>
		<path fill="#EACEC5" d="M7.869,156.554H7.867c0,0-0.238,0.095-0.391,0.04H7.475l-0.058-1.951c0.125,0.021,0.292,0.036,0.449,0.007
			l0.001,0.004C7.867,154.655,7.853,155.911,7.869,156.554z"/>
		<path fill="#3C2C17" d="M7.722,147.872c0.149,0.212,0.006,0.747,0.006,0.747l-0.001,0.005c-0.017-0.003-0.035-0.005-0.054-0.005
			c-0.034,0-0.067,0.006-0.097,0.017c-0.212-0.294-0.218-0.833-0.218-0.833l0.024-0.05C7.382,147.753,7.573,147.66,7.722,147.872z"
			/>
		<path fill="#EACEC5" d="M6.115,149.823c-0.298-0.094-0.533-0.328-0.63-0.625c-0.031-0.095-0.048-0.196-0.048-0.302v-0.277v-0.001
			c0-0.288,0.125-0.547,0.324-0.725c0,0,0,0,0,0c0.084-0.024,0.159-0.059,0.195-0.086l0.001-0.013
			c0.136,0.038,0.342-0.058,0.342-0.058l0.001-0.003c0.341,0.152,1.056,0.07,1.056,0.07s0.007,0.538,0.218,0.833l0.01,0.275
			c0,0.093-0.011,0.183-0.032,0.267c-0.053,0.217-0.172,0.401-0.34,0.524c0,0,0,0,0,0c-0.126,0.092-0.279,0.151-0.453,0.164
			c-0.024,0.002-0.049,0.003-0.074,0.003H6.409c-0.014,0-0.027,0-0.041-0.001C6.281,149.864,6.196,149.848,6.115,149.823z"/>
		<path fill="#3C2C17" d="M5.958,147.794l-0.001,0.013c-0.037,0.027-0.111,0.062-0.195,0.086c0,0,0,0,0,0
			c-0.128,0.036-0.281,0.046-0.364-0.041c-0.016-0.017-0.028-0.037-0.039-0.061c-0.097-0.235,0.212-0.522,0.323-0.533
			c0.107-0.011,0.051,0.089,0.047,0.097c0.009-0.013,0.161-0.223,0.267-0.212c0.109,0.011,0.051,0.132,0.051,0.132
			s0.115-0.172,0.253-0.161c0.138,0.011,0.12,0.161,0.12,0.161s0.688-0.103,0.923,0.057c0.235,0.16,0.038,0.42,0.038,0.42
			l-0.024,0.05c0,0-0.716,0.082-1.056-0.07L6.3,147.737C6.3,147.737,6.095,147.832,5.958,147.794z"/>
		<path fill="#EACEC5" d="M6.81,149.868v0.244c-0.185,0.215-0.442,0-0.442,0v-0.245c0.013,0.001,0.027,0.001,0.041,0.001h0.278
			c0.025,0,0.05-0.001,0.074-0.003L6.81,149.868z"/>
		<path fill="#FFFFFF" d="M6.49,156.642l0.001,0.343c-0.179,0.09-0.4-0.066-0.4-0.066s0.21-0.129,0.132-0.17
			c-0.078-0.04-0.132,0.17-0.132,0.17c0.005-0.063,0.007-0.171,0.008-0.307C6.111,156.617,6.343,156.699,6.49,156.642z"/>
		<path fill="#3C2C17" d="M5.886,157.032c0.047-0.029,0.092-0.055,0.129-0.075c0,0,0,0,0,0c0.045-0.024,0.076-0.038,0.076-0.038
			s0.221,0.156,0.4,0.066l-0.02,0.266c0,0-0.738,0.187-0.805,0.044C5.629,157.216,5.76,157.111,5.886,157.032z"/>
		<path fill="#EACEC5" d="M6.487,154.677l0.004,1.965c-0.147,0.058-0.379-0.024-0.391-0.029c0.005-0.65-0.025-1.94-0.026-1.958
			C6.195,154.692,6.342,154.713,6.487,154.677z"/>
		<path fill="#EACEC5" d="M5.237,151.263c0.077,0.11,0.179,0.234,0.288,0.304c-0.074,0.239-0.68,1.231-0.72,1.296
			c-0.005-0.006-0.01-0.013-0.015-0.02c-0.064-0.079-0.218-0.151-0.304-0.187C4.495,152.641,5.068,151.734,5.237,151.263z"/>

			<path fill="none" stroke="#3D2150" stroke-width="0.0392" stroke-linecap="round" stroke-linejoin="round" stroke-miterlimit="10" d="
			M7.218,149.702c0.168-0.123,0.287-0.307,0.34-0.524c0.021-0.085,0.032-0.174,0.032-0.267l-0.01-0.275"/>

			<path fill="none" stroke="#3D2150" stroke-width="0.0392" stroke-linecap="round" stroke-linejoin="round" stroke-miterlimit="10" d="
			M5.766,147.894c-0.199,0.178-0.324,0.437-0.324,0.725v0.001v0.277c0,0.106,0.017,0.207,0.048,0.302
			c0.097,0.297,0.332,0.53,0.63,0.625c0.08,0.026,0.165,0.041,0.253,0.044c0.013,0.001,0.027,0.001,0.041,0.001h0.278
			c0.025,0,0.05-0.001,0.074-0.003c0.174-0.013,0.327-0.071,0.453-0.164"/>

			<path fill="none" stroke="#3D2150" stroke-width="0.0392" stroke-linecap="round" stroke-linejoin="round" stroke-miterlimit="10" d="
			M7.58,148.636L7.58,148.636c0.031-0.011,0.063-0.017,0.097-0.017c0.018,0,0.036,0.002,0.054,0.005
			c0.135,0.025,0.238,0.144,0.238,0.286c0,0.161-0.131,0.292-0.292,0.292c-0.04,0-0.079-0.008-0.114-0.023"/>

			<path fill="none" stroke="#3D2150" stroke-width="0.0392" stroke-linecap="round" stroke-linejoin="round" stroke-miterlimit="10" d="
			M5.489,149.199c-0.016,0.003-0.031,0.004-0.048,0.004c-0.161,0-0.291-0.131-0.291-0.292c0-0.135,0.091-0.248,0.215-0.281
			c0.024-0.007,0.05-0.01,0.077-0.01"/>

			<path fill="none" stroke="#3D2150" stroke-width="0.0392" stroke-linecap="round" stroke-linejoin="round" stroke-miterlimit="10" d="
			M6.373,149.867L6.373,149.867v0.246c0,0,0.257,0.215,0.442,0v-0.244"/>

			<path fill="none" stroke="#230031" stroke-width="0.0392" stroke-linecap="round" stroke-linejoin="round" stroke-miterlimit="10" d="
			M5.733,147.356C5.733,147.356,5.733,147.356,5.733,147.356c0.005-0.009,0.06-0.109-0.046-0.098
			c-0.111,0.011-0.42,0.298-0.323,0.533c0.01,0.024,0.023,0.044,0.039,0.061c0.082,0.088,0.235,0.078,0.364,0.041c0,0,0,0,0,0
			c0.084-0.024,0.159-0.059,0.195-0.086"/>

			<path fill="none" stroke="#230031" stroke-width="0.0392" stroke-linecap="round" stroke-linejoin="round" stroke-miterlimit="10" d="
			M7.732,148.619c0,0,0.143-0.535-0.006-0.747c-0.149-0.212-0.34-0.119-0.34-0.119s0.197-0.26-0.038-0.42
			c-0.235-0.161-0.923-0.057-0.923-0.057s0.017-0.149-0.12-0.161c-0.138-0.011-0.253,0.161-0.253,0.161s0.058-0.121-0.051-0.132
			c-0.106-0.011-0.258,0.199-0.267,0.212"/>

			<path fill="none" stroke="#230031" stroke-width="0.0392" stroke-linecap="round" stroke-linejoin="round" stroke-miterlimit="10" d="
			M6.144,147.425c-0.049,0.152,0.027,0.249,0.162,0.309c0.341,0.152,1.056,0.07,1.056,0.07s0.007,0.538,0.218,0.833"/>

			<path fill="none" stroke="#230031" stroke-width="0.0392" stroke-linecap="round" stroke-linejoin="round" stroke-miterlimit="10" d="
			M6.304,147.737c0,0-0.206,0.095-0.342,0.058c-0.085-0.023-0.143-0.098-0.109-0.278"/>

			<path fill="none" stroke="#230031" stroke-width="0.0392" stroke-linecap="round" stroke-linejoin="round" stroke-miterlimit="10" d="
			M5.397,147.867c0,0-0.205,0.086-0.032,0.763"/>

			<path fill="none" stroke="#3D2150" stroke-width="0.0392" stroke-linecap="round" stroke-linejoin="round" stroke-miterlimit="10" d="
			M6.373,150.112c0,0-0.161-0.07-0.328-0.06c-0.067,0.004-0.134,0.021-0.193,0.06c-0.206,0.138-0.771,0.863-0.741,0.932
			c0.012,0.027,0.061,0.117,0.131,0.218c0.077,0.11,0.179,0.234,0.288,0.304c0.042,0.027,0.084,0.046,0.126,0.053l0.277-0.64"/>

			<path fill="none" stroke="#3D2150" stroke-width="0.0392" stroke-linecap="round" stroke-linejoin="round" stroke-miterlimit="10" d="
			M5.943,150.783c0,0-0.004,0.079-0.011,0.196c-0.014,0.24-0.039,0.642-0.059,0.873c-0.03,0.345-0.088,0.93-0.088,0.93
			s0.05,0.031,0.138,0.073c0.192,0.091,0.568,0.231,1.021,0.212c0.455-0.019,0.74-0.2,0.873-0.311c0.061-0.05,0.09-0.087,0.09-0.087
			l-0.123-0.66v0"/>

			<path fill="none" stroke="#3D2150" stroke-width="0.0392" stroke-linecap="round" stroke-linejoin="round" stroke-miterlimit="10" d="
			M7.633,150.208c0.015,0.015,0.03,0.032,0.044,0.049c0.36,0.433,0.436,0.618,0.444,0.639c0.001,0.001,0.001,0.002,0.001,0.002
			s-0.034,0.052-0.098,0.109c-0.087,0.077-0.23,0.165-0.418,0.147"/>

			<path fill="none" stroke="#3D2150" stroke-width="0.0392" stroke-linecap="round" stroke-linejoin="round" stroke-miterlimit="10" d="
			M6.815,150.112c0,0,0.07-0.046,0.178-0.078c0.082-0.024,0.185-0.039,0.297-0.019c0.111,0.02,0.231,0.075,0.344,0.192"/>

			<path fill="none" stroke="#3D2150" stroke-width="0.0392" stroke-linecap="round" stroke-linejoin="round" stroke-miterlimit="10" d="
			M7.503,150.611c0,0,0.047,0.289,0.098,0.544c0.026,0.131,0.054,0.253,0.076,0.322"/>

			<path fill="none" stroke="#3D2150" stroke-width="0.0392" stroke-linecap="round" stroke-linejoin="round" stroke-miterlimit="10" d="
			M6.969,150.783C6.969,150.783,6.969,150.782,6.969,150.783c-0.003-0.013-0.053-0.201,0.005-0.201c0.06,0,0.121,0.201,0.121,0.201
			s0.087-0.067,0.143-0.049c0.056,0.017,0.028,0.189,0,0.263c0,0,0.137,0.252,0.438,0.48c0.042,0.032,0.087,0.063,0.135,0.093"/>

			<path fill="none" stroke="#3D2150" stroke-width="0.0392" stroke-linecap="round" stroke-linejoin="round" stroke-miterlimit="10" d="
			M6.846,150.871C6.846,150.871,6.846,150.87,6.846,150.871c-0.005-0.011-0.098-0.247-0.031-0.26
			c0.036-0.007,0.077,0.04,0.107,0.087c0.026,0.04,0.045,0.08,0.048,0.084"/>

			<path fill="none" stroke="#3D2150" stroke-width="0.0392" stroke-linecap="round" stroke-linejoin="round" stroke-miterlimit="10" d="
			M8.024,151.007c0.063,0.134,0.318,0.71,0.159,0.895c-0.094,0.109-0.233,0.146-0.399,0.109c-0.154-0.034-0.331-0.132-0.513-0.297
			c-0.378-0.342-0.636-0.867-0.585-0.931c0.05-0.062,0.155,0.08,0.16,0.088"/>

			<path fill="none" stroke="#3D2150" stroke-width="0.0392" stroke-linecap="round" stroke-linejoin="round" stroke-miterlimit="10" d="
			M5.923,152.856l-0.126,1.672c0,0,0.117,0.078,0.281,0.127c0.122,0.037,0.269,0.058,0.413,0.022
			c0.062-0.016,0.123-0.042,0.181-0.082l-0.019-1.122v-0.003"/>

			<path fill="none" stroke="#3D2150" stroke-width="0.0392" stroke-linecap="round" stroke-linejoin="round" stroke-miterlimit="10" d="
			M6.549,153.439c0,0,0.037,0.016,0.104,0.033c0.105,0.026,0.283,0.054,0.5,0.021c0.045-0.007,0.092-0.016,0.14-0.028"/>

			<path fill="none" stroke="#3D2150" stroke-width="0.0392" stroke-linecap="round" stroke-linejoin="round" stroke-miterlimit="10" d="
			M7.154,153.494l0.072,1.106c0,0,0.08,0.025,0.196,0.044c0.125,0.021,0.292,0.036,0.449,0.007c0.126-0.023,0.245-0.074,0.329-0.172
			c0,0-0.193-0.933-0.295-1.436c-0.027-0.135-0.048-0.238-0.056-0.285"/>

			<path fill="none" stroke="#3D2150" stroke-width="0.0392" stroke-linecap="round" stroke-linejoin="round" stroke-miterlimit="10" d="
			M7.239,150.733c0,0-0.071-0.493,0.05-0.717"/>

			<path fill="none" stroke="#3D2150" stroke-width="0.0392" stroke-linecap="round" stroke-linejoin="round" stroke-miterlimit="10" d="
			M6.922,150.698c0,0-0.032-0.415,0.071-0.663"/>

			<path fill="none" stroke="#3D2150" stroke-width="0.0392" stroke-linecap="round" stroke-linejoin="round" stroke-miterlimit="10" d="
			M6.045,150.051c0,0,0.018-0.212,0.075-0.228"/>

			<path fill="none" stroke="#3D2150" stroke-width="0.0392" stroke-linecap="round" stroke-linejoin="round" stroke-miterlimit="10" d="
			M7.218,149.702L7.218,149.702c0.014-0.002,0.702-0.114,0.751,0.305c0.006,0.048,0.019,0.117,0.037,0.202
			c0.038,0.173,0.098,0.413,0.163,0.677c0.183,0.749,0.396,1.694,0.216,1.873c-0.275,0.274-0.481,0.285-0.481,0.285"/>

			<path fill="none" stroke="#3D2150" stroke-width="0.0392" stroke-linecap="round" stroke-linejoin="round" stroke-miterlimit="10" d="
			M8.007,150.208c0,0-0.11,0.171-0.373,0l0,0"/>

			<path fill="none" stroke="#3D2150" stroke-width="0.0392" stroke-linecap="round" stroke-linejoin="round" stroke-miterlimit="10" d="
			M6.019,156.958c0.045-0.024,0.076-0.038,0.076-0.038c0.005-0.063,0.007-0.171,0.008-0.307c0.005-0.651-0.025-1.94-0.026-1.958v0"
			/>

			<path fill="none" stroke="#3D2150" stroke-width="0.0392" stroke-linecap="round" stroke-linejoin="round" stroke-miterlimit="10" d="
			M6.491,154.666v0.01l0.004,1.965l0.001,0.343l-0.02,0.266c0,0-0.738,0.187-0.805,0.044c-0.037-0.078,0.094-0.183,0.22-0.262
			c0.047-0.029,0.092-0.055,0.129-0.075"/>

			<path fill="none" stroke="#3D2150" stroke-width="0.0392" stroke-linecap="round" stroke-linejoin="round" stroke-miterlimit="10" d="
			M6.102,156.612C6.102,156.612,6.103,156.612,6.102,156.612c0.013,0.005,0.245,0.087,0.392,0.029"/>

			<path fill="none" stroke="#3D2150" stroke-width="0.0392" stroke-linecap="round" stroke-linejoin="round" stroke-miterlimit="10" d="
			M6.095,156.919c0,0,0.221,0.156,0.4,0.066"/>

			<path fill="none" stroke="#3D2150" stroke-width="0.0392" stroke-linecap="round" stroke-linejoin="round" stroke-miterlimit="10" d="
			M6.08,156.918c0,0-0.023-0.216-0.106-0.187C5.891,156.759,6.08,156.918,6.08,156.918z"/>

			<path fill="none" stroke="#3D2150" stroke-width="0.0392" stroke-linecap="round" stroke-linejoin="round" stroke-miterlimit="10" d="
			M6.095,156.919c0,0,0.055-0.21,0.132-0.17C6.305,156.79,6.095,156.919,6.095,156.919z"/>

			<path fill="none" stroke="#3D2150" stroke-width="0.0392" stroke-linecap="round" stroke-linejoin="round" stroke-miterlimit="10" d="
			M7.421,154.643l0.058,1.951l0.01,0.343l0.027,0.265c0,0,0.743,0.165,0.806,0.02c0.034-0.079-0.099-0.18-0.227-0.256
			c-0.047-0.028-0.094-0.053-0.131-0.071c-0.046-0.023-0.077-0.036-0.077-0.036c-0.007-0.063-0.011-0.171-0.015-0.306
			c-0.016-0.643-0.002-1.899-0.002-1.899"/>

			<path fill="none" stroke="#3D2150" stroke-width="0.0392" stroke-linecap="round" stroke-linejoin="round" stroke-miterlimit="10" d="
			M7.871,156.554c0,0-0.238,0.095-0.391,0.04"/>

			<path fill="none" stroke="#3D2150" stroke-width="0.0392" stroke-linecap="round" stroke-linejoin="round" stroke-miterlimit="10" d="
			M7.888,156.86c0,0-0.216,0.162-0.398,0.077"/>

			<path fill="none" stroke="#3D2150" stroke-width="0.0392" stroke-linecap="round" stroke-linejoin="round" stroke-miterlimit="10" d="
			M7.903,156.858c0,0,0.017-0.216,0.101-0.19C8.087,156.694,7.903,156.858,7.903,156.858z"/>

			<path fill="none" stroke="#3D2150" stroke-width="0.0392" stroke-linecap="round" stroke-linejoin="round" stroke-miterlimit="10" d="
			M7.888,156.86c0,0-0.061-0.208-0.138-0.166C7.674,156.737,7.888,156.86,7.888,156.86z"/>

			<path fill="none" stroke="#3D2150" stroke-width="0.0392" stroke-linecap="round" stroke-linejoin="round" stroke-miterlimit="10" d="
			M4.489,152.656L4.489,152.656c0.01-0.016,0.583-0.923,0.752-1.394"/>

			<path fill="none" stroke="#3D2150" stroke-width="0.0392" stroke-linecap="round" stroke-linejoin="round" stroke-miterlimit="10" d="
			M4.807,152.866c0,0,0.001-0.001,0.002-0.003c0.04-0.065,0.646-1.057,0.72-1.296"/>
		<path fill="#D793A6" d="M6.514,148.296c0.16,0,0.188,0.634,0.116,0.714c-0.081,0.089-0.232,0.054-0.26-0.022
			C6.345,148.925,6.324,148.297,6.514,148.296z"/>

			<path fill="none" stroke="#3D2150" stroke-width="0.0588" stroke-linecap="round" stroke-linejoin="round" stroke-miterlimit="10" d="
			M6.855,149.14c0,0-0.093,0.131-0.29,0.131c-0.221,0-0.264-0.131-0.264-0.131"/>
		<path fill="#3C2C17" d="M7.244,148.205c0,0.079-0.412,0.031-0.396-0.069C6.872,147.991,7.244,148.066,7.244,148.205z"/>
		<path fill="#3C2C17" d="M5.778,148.219c0,0.079,0.412,0.031,0.396-0.069C6.15,148.005,5.778,148.081,5.778,148.219z"/>
		<path fill="#260734" d="M5.508,148.382c0,0,0.035,0.01,0.077,0c0.041-0.01,0.215-0.092,0.381-0.082
			c0.166,0.01,0.222,0.048,0.263,0.072c0.041,0.024,0.076,0.051,0.097,0.054s0.02-0.024,0.051-0.024c0.031,0,0.262-0.003,0.275,0
			c0.013,0.004,0.036,0.027,0.051,0.024c0.016-0.003,0.081-0.07,0.223-0.103c0.142-0.033,0.285-0.014,0.392,0.017
			c0.106,0.031,0.133,0.038,0.156,0.042c0.024,0.004,0.055,0,0.056,0.01c0.001,0.01,0.01,0.07,0,0.078
			c-0.01,0.007-0.07,0.019-0.074,0.042c-0.004,0.023-0.01,0.143-0.048,0.247c-0.038,0.104-0.154,0.285-0.378,0.277
			c-0.223-0.008-0.297-0.125-0.354-0.212c-0.046-0.071-0.028-0.126-0.032-0.159c-0.005-0.045,0-0.083-0.009-0.119
			c-0.01-0.036-0.075-0.046-0.129-0.044c-0.054,0.001-0.117,0.005-0.117,0.045s-0.003,0.097-0.004,0.118
			c-0.003,0.045-0.017,0.147-0.131,0.266c-0.087,0.091-0.233,0.115-0.335,0.091c-0.102-0.024-0.232-0.07-0.296-0.244
			c-0.064-0.175-0.028-0.245-0.058-0.277c-0.03-0.032-0.054-0.013-0.066-0.034C5.488,148.446,5.481,148.378,5.508,148.382z"/>
		<path fill="#000021" d="M6.714,148.557c0.05-0.164,0.245-0.207,0.354-0.206c0.109,0.001,0.283,0.05,0.307,0.219
			c0.023,0.169-0.109,0.413-0.324,0.412C6.837,148.983,6.636,148.815,6.714,148.557z"/>
		<path fill="#000021" d="M6.299,148.555c-0.049-0.164-0.244-0.207-0.354-0.206c-0.109,0.001-0.283,0.049-0.307,0.219
			c-0.024,0.169,0.109,0.413,0.323,0.413C6.176,148.981,6.377,148.814,6.299,148.555z"/>
		<path fill="#88858C" d="M6.714,148.557c0.05-0.164,0.245-0.207,0.354-0.206c0.109,0.001,0.283,0.05,0.307,0.219
			c0.023,0.169-0.109,0.413-0.324,0.412C6.837,148.983,6.636,148.815,6.714,148.557z"/>
		<path fill="#88858C" d="M6.299,148.555c-0.049-0.164-0.244-0.207-0.354-0.206c-0.109,0.001-0.283,0.049-0.307,0.219
			c-0.024,0.169,0.109,0.413,0.323,0.413C6.176,148.981,6.377,148.814,6.299,148.555z"/>
		<g opacity="0.2" enable-background="new    ">
			<g>
				<defs>
					<path id="SVGID_1_" d="M6.714,148.557c0.05-0.164,0.245-0.207,0.354-0.206c0.109,0.001,0.283,0.05,0.307,0.219
						c0.023,0.169-0.109,0.413-0.324,0.412C6.837,148.983,6.636,148.815,6.714,148.557z"/>
				</defs>
				<clipPath id="SVGID_2_">
					<use xlink:href="#SVGID_1_"  overflow="visible"/>
				</clipPath>

					<linearGradient id="SVGID_3_" gradientUnits="userSpaceOnUse" x1="-1342.8784" y1="-301.3301" x2="-1343.4489" y2="-301.9483" gradientTransform="matrix(-0.9693 -0.2459 0.0935 -0.3681 -1266.6279 -292.8449)">
					<stop  offset="0" style="stop-color:#FFFFFF"/>
					<stop  offset="1" style="stop-color:#FFFFFF;stop-opacity:0.1"/>
				</linearGradient>
				<polygon clip-path="url(#SVGID_2_)" fill="url(#SVGID_3_)" points="6.612,148.392 7.509,148.62 7.535,148.517 6.638,148.29
					"/>
			</g>
			<g>
				<defs>
					<path id="SVGID_4_" d="M6.714,148.557c0.05-0.164,0.245-0.207,0.354-0.206c0.109,0.001,0.283,0.05,0.307,0.219
						c0.023,0.169-0.109,0.413-0.324,0.412C6.837,148.983,6.636,148.815,6.714,148.557z"/>
				</defs>
				<clipPath id="SVGID_5_">
					<use xlink:href="#SVGID_4_"  overflow="visible"/>
				</clipPath>

					<linearGradient id="SVGID_6_" gradientUnits="userSpaceOnUse" x1="-1342.23" y1="-623.0477" x2="-1342.8004" y2="-623.6659" gradientTransform="matrix(-0.9693 -0.2459 0.0661 -0.2604 -1253.0613 -343.8667)">
					<stop  offset="0" style="stop-color:#FFFFFF"/>
					<stop  offset="1" style="stop-color:#FFFFFF;stop-opacity:0.1"/>
				</linearGradient>
				<polygon clip-path="url(#SVGID_5_)" fill="url(#SVGID_6_)" points="6.553,148.488 7.449,148.715 7.468,148.643 6.571,148.416
									"/>
			</g>
		</g>
		<g opacity="0.2" enable-background="new    ">
			<g>
				<defs>
					<path id="SVGID_7_" d="M6.299,148.555c-0.049-0.164-0.244-0.207-0.354-0.206c-0.109,0.001-0.283,0.049-0.307,0.219
						c-0.024,0.169,0.109,0.413,0.323,0.413C6.176,148.981,6.377,148.814,6.299,148.555z"/>
				</defs>
				<clipPath id="SVGID_8_">
					<use xlink:href="#SVGID_7_"  overflow="visible"/>
				</clipPath>

					<linearGradient id="SVGID_9_" gradientUnits="userSpaceOnUse" x1="-1341.8625" y1="-301.9633" x2="-1342.4331" y2="-302.5815" gradientTransform="matrix(-0.9693 -0.2459 0.0935 -0.3681 -1266.6279 -292.8449)">
					<stop  offset="0" style="stop-color:#FFFFFF"/>
					<stop  offset="1" style="stop-color:#FFFFFF;stop-opacity:0.1"/>
				</linearGradient>
				<polygon clip-path="url(#SVGID_8_)" fill="url(#SVGID_9_)" points="5.568,148.375 6.465,148.603 6.491,148.501 5.594,148.273
									"/>
			</g>
			<g>
				<defs>
					<path id="SVGID_10_" d="M6.299,148.555c-0.049-0.164-0.244-0.207-0.354-0.206c-0.109,0.001-0.283,0.049-0.307,0.219
						c-0.024,0.169,0.109,0.413,0.323,0.413C6.176,148.981,6.377,148.814,6.299,148.555z"/>
				</defs>
				<clipPath id="SVGID_11_">
					<use xlink:href="#SVGID_10_"  overflow="visible"/>
				</clipPath>

					<linearGradient id="SVGID_12_" gradientUnits="userSpaceOnUse" x1="-1341.2142" y1="-623.9429" x2="-1341.7847" y2="-624.561" gradientTransform="matrix(-0.9693 -0.2459 0.0661 -0.2604 -1253.0613 -343.8667)">
					<stop  offset="0" style="stop-color:#FFFFFF"/>
					<stop  offset="1" style="stop-color:#FFFFFF;stop-opacity:0.1"/>
				</linearGradient>
				<polygon clip-path="url(#SVGID_11_)" fill="url(#SVGID_12_)" points="5.509,148.471 6.405,148.699 6.424,148.626 5.527,148.399
									"/>
			</g>
		</g>
	</g>

		<line fill="none" stroke="#FFFFFF" stroke-width="0.2126" stroke-miterlimit="10" x1="4.783" y1="143.533" x2="11.798" y2="143.533"/>

		<line fill="none" stroke="#FFFFFF" stroke-width="0.2126" stroke-miterlimit="10" x1="4.783" y1="157.988" x2="11.798" y2="157.988"/>
	<path fill="none" stroke="#FFFFFF" stroke-width="0.6377" stroke-miterlimit="10" d="M12.157,144.17H4.53
		c0,0-3.068,2.82-3.068,6.59c0,4.003,3.068,6.59,3.068,6.59h7.627c0,0,3.068-2.587,3.068-6.59
		C15.225,146.991,12.157,144.17,12.157,144.17z"/>
	<line fill="none" stroke="#FFFFFF" stroke-width="0.4252" stroke-miterlimit="10" x1="4.57" y1="144.489" x2="4.57" y2="157.669"/>
	<path fill="#F45B5B" d="M12.692,143.001c-0.235-0.552-0.426-0.965-0.692-1.496l-7.039-0.123c-0.266,0.531-0.518,1.068-0.753,1.619
		H12.692z"/>
	<rect x="5.541" y="159.795" fill="#F4407C" width="5.952" height="0.638"/>
	<path fill="#F45B5B" d="M4.222,158.732c0.235,0.552,0.426,0.965,0.692,1.496l7.039,0.123c0.266-0.531,0.518-1.068,0.753-1.619
		H4.222z"/>
</g>
<g id="up">
	<path fill="#E6AC47" d="M11.686,160.504l-2.975-0.036l-2.975-0.036c0,0-2.418,1.156-1.27,3.99c0,0,0.707-1.2,1.723-0.904
		c0,0-0.167,3.742,2.422,5.29c2.626-1.485,2.549-5.231,2.549-5.231c1.022-0.272,1.7,0.945,1.7,0.945
		C14.075,161.718,11.686,160.504,11.686,160.504z"/>
	<path fill="#F6EB41" d="M11.052,160.496l-2.341-0.028L6.37,160.44c0,0-2.471,0.903-1.568,3.133c0,0,1.125-0.938,1.924-0.704
		c0,0-0.132,2.945,1.906,4.163c2.067-1.169,2.006-4.116,2.006-4.116c0.804-0.214,1.947,0.751,1.947,0.751
		C13.541,161.459,11.052,160.496,11.052,160.496z"/>
	<path fill="#F0F0F0" d="M10.205,160.486l-1.487-0.018l-1.488-0.018c0,0-1.57,0.574-0.996,1.99c0,0,0.715-0.596,1.222-0.447
		c0,0-0.084,1.871,1.211,2.645c1.313-0.743,1.274-2.615,1.274-2.615c0.511-0.136,1.237,0.477,1.237,0.477
		C11.787,161.098,10.205,160.486,10.205,160.486z"/>
</g>
</svg>
