<?xml version="1.0" encoding="utf-8"?>
<!-- Generator: Adobe Illustrator 17.0.0, SVG Export Plug-In . SVG Version: 6.00 Build 0)  -->
<!DOCTYPE svg PUBLIC "-//W3C//DTD SVG 1.1//EN" "http://www.w3.org/Graphics/SVG/1.1/DTD/svg11.dtd">
<svg version="1.1" xmlns="http://www.w3.org/2000/svg" xmlns:xlink="http://www.w3.org/1999/xlink" x="0px" y="0px" width="78.5px"
	 height="149.404px" viewBox="0 0 78.5 149.404" enable-background="new 0 0 78.5 149.404" xml:space="preserve">
<g id="Lift">
	<rect x="25.5" y="39.404" fill="#F4407C" width="28" height="3"/>
	<path fill="#F78F8F" d="M61,47.404H39H17.5c0,0-17.5,15.5-17.5,37c0,22.833,17.5,37,17.5,37H39h22c0,0,17.5-14.167,17.5-37
		C78.5,62.904,61,47.404,61,47.404z"/>
	<path fill="#63D8F7" d="M57.189,54.404H21.311c0,0-14.433,13.268-14.433,31c0,18.832,14.433,31,14.433,31h35.877
		c0,0,14.433-12.168,14.433-31C71.622,67.671,57.189,54.404,57.189,54.404z"/>
	<g opacity="0.5">
		<path fill="#50A59C" d="M38.412,84.488c0.86,3.522,1.865,7.967,1.017,8.813c-1.295,1.29-2.263,1.339-2.263,1.339
			c-0.128-0.633-0.224-1.12-0.264-1.339L36.752,93.3c0.285-0.237,0.424-0.408,0.424-0.408l-0.579-3.103
			c0.778,0.173,1.435-0.003,1.874-0.514c0.748-0.871-0.451-3.578-0.746-4.209c0.302-0.269,0.463-0.512,0.463-0.512
			s-0.001-0.004-0.004-0.01L38.412,84.488z"/>
		<path fill="#50A59C" d="M38.412,84.488l-0.228,0.056c-0.037-0.101-0.393-0.971-2.087-3.006c-0.068-0.082-0.138-0.159-0.208-0.231
			c1.237,0.805,1.756-0.001,1.756-0.001C37.824,82.119,38.108,83.247,38.412,84.488z"/>
		<path fill="#50A59C" d="M29.959,79.703v1.153c0,0-0.757-0.331-1.543-0.284v-0.004c0,0,0.084-0.999,0.352-1.073
			C29.146,79.614,29.545,79.687,29.959,79.703z"/>
		<path fill="#50A59C" d="M34.269,80.402c-0.524-0.094-1.011-0.022-1.396,0.09c-0.507,0.147-0.835,0.365-0.835,0.365v-1.148
			l-0.231-0.013c0.817-0.061,1.539-0.335,2.129-0.77c0,0,0,0,0.001,0c0.065-0.011,3.301-0.535,3.532,1.433
			c0.026,0.225,0.088,0.549,0.176,0.948c0,0-0.519,0.806-1.756,0.001l-0.001-0.001C35.356,80.754,34.794,80.495,34.269,80.402z"/>
		<path fill="#85DDB5" d="M34.034,83.777c-0.264-0.081-0.675,0.232-0.675,0.232s-0.285-0.946-0.569-0.946
			c-0.274,0-0.04,0.888-0.025,0.943c-0.011-0.023-0.1-0.209-0.224-0.397c0,0-0.152-1.951,0.332-3.118
			c0.385-0.112,0.872-0.184,1.396-0.09C33.698,81.456,34.034,83.777,34.034,83.777z"/>
		<path fill="#E2BFBC" d="M36.349,73.856c0.637,0.118,1.12,0.676,1.12,1.347c0,0.758-0.614,1.372-1.372,1.372
			c-0.189,0-0.37-0.038-0.534-0.108l-0.026-0.007c0.098-0.398,0.149-0.819,0.149-1.257L35.64,73.91
			c0.143-0.051,0.296-0.078,0.456-0.078C36.183,73.832,36.267,73.84,36.349,73.856z"/>
		<path fill="#E2BFBC" d="M25.219,73.88c0.114-0.031,0.235-0.048,0.36-0.048v1.304c0,0.497,0.079,0.974,0.225,1.421
			c-0.073,0.012-0.148,0.018-0.225,0.018c-0.757,0-1.371-0.614-1.371-1.372C24.207,74.57,24.636,74.037,25.219,73.88z"/>
		<path fill="#3C2C17" d="M25.395,70.225c0.388,0.413,1.106,0.366,1.71,0.195c-0.936,0.837-1.526,2.054-1.526,3.41v0.004
			c-0.125,0-0.245,0.017-0.36,0.048c-0.815-3.182,0.15-3.588,0.15-3.588L25.395,70.225z"/>
		<path fill="#3C2C17" d="M38.067,113.103c0.602,0.353,1.23,0.829,1.068,1.202c-0.295,0.682-3.792-0.095-3.792-0.095l-0.129-1.248
			c0.854,0.4,1.873-0.363,1.873-0.363s0.147,0.065,0.362,0.171C37.624,112.856,37.844,112.972,38.067,113.103z"/>
		<path fill="#EACEC5" d="M36.597,89.789c-0.725-0.161-1.556-0.623-2.415-1.399c-1.779-1.607-2.993-4.08-2.751-4.381
			c0.236-0.293,0.727,0.377,0.752,0.412c-0.021-0.051-0.462-1.16-0.146-1.219c0.168-0.031,0.36,0.189,0.504,0.408
			c0.124,0.189,0.213,0.374,0.224,0.397c-0.015-0.056-0.249-0.943,0.025-0.943c0.284,0,0.569,0.946,0.569,0.946
			s0.411-0.313,0.675-0.232c0.263,0.081,0.134,0.89,0,1.239c0,0,0.645,1.186,2.062,2.26c-0.106-0.324-0.235-0.898-0.359-1.515
			l0.022-0.004c0.885,0.085,1.555-0.327,1.965-0.691c0.295,0.631,1.494,3.338,0.746,4.209
			C38.031,89.786,37.374,89.962,36.597,89.789z"/>
		<path fill="#0E6ECC" d="M35.738,85.762c0.124,0.617,0.253,1.191,0.359,1.515c-1.417-1.074-2.062-2.26-2.062-2.26
			c0.134-0.349,0.263-1.158,0-1.239c0,0-0.336-2.321,0.235-3.375c0.524,0.093,1.086,0.353,1.619,0.904l0.001,0.001
			c0.07,0.072,0.14,0.149,0.208,0.231c1.695,2.035,2.05,2.905,2.087,3.006c0.003,0.006,0.004,0.01,0.004,0.01
			s-0.161,0.243-0.463,0.512c-0.41,0.364-1.08,0.776-1.965,0.691L35.738,85.762z"/>
		<path fill="#EFB45E" d="M28.571,102.225c-0.771-0.234-1.32-0.599-1.32-0.599l0.593-7.864c0.904,0.427,2.67,1.088,4.801,0.999
			c2.142-0.089,3.48-0.94,4.107-1.463l0.149,0.002c0.04,0.22,0.136,0.707,0.264,1.339c0.477,2.363,1.388,6.754,1.388,6.754
			c-0.397,0.462-0.956,0.702-1.548,0.809c-0.737,0.134-1.525,0.065-2.113-0.033c-0.547-0.092-0.921-0.208-0.921-0.208l-0.338-5.201
			c-1.024,0.154-1.86,0.024-2.354-0.1l0.089,5.279c-0.275,0.19-0.563,0.314-0.853,0.387C29.836,102.5,29.143,102.399,28.571,102.225
			z"/>
		<path fill="#0E6ECC" d="M27.886,84.933l-1.302,3.013c-0.199-0.034-0.399-0.123-0.595-0.249c-0.51-0.329-0.992-0.911-1.353-1.43
			c-0.33-0.476-0.559-0.899-0.615-1.027c-0.141-0.324,2.515-3.737,3.486-4.383c0.277-0.184,0.596-0.264,0.909-0.284
			c0.786-0.047,1.543,0.284,1.543,0.284s1.21,1.011,2.079,0c0,0,0.328-0.217,0.835-0.365c-0.483,1.167-0.332,3.118-0.332,3.118
			c-0.144-0.218-0.335-0.439-0.504-0.408c-0.316,0.059,0.125,1.168,0.146,1.219c-0.025-0.035-0.516-0.705-0.752-0.412
			c-0.243,0.301,0.971,2.774,2.751,4.381c0.859,0.776,1.69,1.238,2.415,1.399l0.579,3.103c0,0-0.139,0.17-0.424,0.408
			c-0.627,0.523-1.965,1.374-4.107,1.463c-2.131,0.089-3.897-0.572-4.801-0.999c-0.418-0.197-0.651-0.345-0.651-0.345
			s0.274-2.752,0.415-4.376C27.703,87.953,27.819,86.062,27.886,84.933z"/>
		<path fill="#FFFFFF" d="M37.018,111.158c0.016,0.635,0.038,1.142,0.069,1.441c0,0-0.285-0.979-0.647-0.779
			c-0.361,0.2,0.647,0.779,0.647,0.779s-1.018,0.763-1.873,0.363l-0.048-1.614h0.003c0.719,0.259,1.839-0.19,1.839-0.19H37.018z"/>
		<path fill="#EACEC5" d="M37.018,111.158h-0.01c0,0-1.12,0.449-1.839,0.19h-0.003l-0.274-9.178
			c0.588,0.098,1.375,0.168,2.113,0.033l0.004,0.021C37.008,102.225,36.941,108.135,37.018,111.158z"/>
		<path fill="#3C2C17" d="M36.326,70.317c0.701,0.997,0.027,3.515,0.027,3.515l-0.004,0.023c-0.082-0.016-0.166-0.023-0.252-0.023
			c-0.161,0-0.313,0.027-0.456,0.078c-0.997-1.383-1.027-3.917-1.027-3.917l0.113-0.234C34.726,69.759,35.624,69.319,36.326,70.317z
			"/>
		<path fill="#EACEC5" d="M28.768,79.495c-1.401-0.444-2.509-1.544-2.964-2.938c-0.146-0.447-0.225-0.924-0.225-1.421v-1.304v-0.004
			c0-1.355,0.59-2.573,1.526-3.41c0,0,0,0,0.001-0.001c0.397-0.112,0.746-0.279,0.919-0.404l0.004-0.063
			c0.641,0.178,1.608-0.271,1.608-0.271l0.006-0.015c1.604,0.716,4.97,0.327,4.97,0.327s0.031,2.533,1.027,3.917l0.045,1.293
			c0,0.438-0.051,0.859-0.149,1.257c-0.251,1.022-0.811,1.885-1.6,2.465c-0.001,0-0.001,0-0.001,0
			c-0.591,0.435-1.312,0.709-2.129,0.77c-0.114,0.009-0.23,0.013-0.349,0.013H30.15c-0.065,0-0.128-0.002-0.191-0.004
			C29.545,79.687,29.146,79.614,28.768,79.495z"/>
		<path fill="#3C2C17" d="M28.029,69.951l-0.004,0.063c-0.173,0.125-0.522,0.292-0.919,0.404c-0.001,0.001-0.001,0.001-0.001,0.001
			c-0.604,0.171-1.321,0.218-1.71-0.195c-0.073-0.079-0.134-0.173-0.182-0.285c-0.458-1.106,0.998-2.454,1.518-2.508
			c0.501-0.052,0.241,0.419,0.22,0.456c0.044-0.06,0.759-1.047,1.256-0.995c0.512,0.053,0.241,0.62,0.241,0.62
			s0.541-0.81,1.189-0.756c0.648,0.054,0.566,0.756,0.566,0.756s3.237-0.486,4.342,0.27c1.106,0.755,0.18,1.978,0.18,1.978
			l-0.113,0.234c0,0-3.366,0.388-4.97-0.327l-0.006,0.015C29.637,69.681,28.67,70.129,28.029,69.951z"/>
		<path fill="#EACEC5" d="M32.038,79.708v1.148c-0.869,1.011-2.079,0-2.079,0v-1.153c0.063,0.003,0.127,0.004,0.191,0.004h1.307
			c0.119,0,0.235-0.004,0.349-0.013L32.038,79.708z"/>
		<path fill="#FFFFFF" d="M30.531,111.571l0.003,1.614c-0.843,0.424-1.882-0.309-1.882-0.309s0.99-0.608,0.623-0.798
			c-0.367-0.189-0.623,0.798-0.623,0.798c0.022-0.296,0.034-0.803,0.038-1.442C28.749,111.456,29.839,111.843,30.531,111.571z"/>
		<path fill="#3C2C17" d="M27.687,113.409c0.22-0.138,0.435-0.259,0.607-0.351c0,0,0,0,0.001,0c0.212-0.113,0.357-0.181,0.357-0.181
			s1.039,0.733,1.882,0.309l-0.093,1.251c0,0-3.473,0.879-3.788,0.206C26.481,114.274,27.095,113.781,27.687,113.409z"/>
		<path fill="#EACEC5" d="M30.515,102.328l0.017,9.243c-0.692,0.272-1.783-0.115-1.841-0.136c0.023-3.06-0.118-9.124-0.12-9.209
			C29.143,102.399,29.836,102.5,30.515,102.328z"/>
		<path fill="#EACEC5" d="M24.636,86.267c0.36,0.519,0.842,1.101,1.353,1.43c-0.35,1.126-3.2,5.791-3.387,6.097
			c-0.024-0.03-0.047-0.062-0.072-0.093c-0.301-0.374-1.025-0.71-1.431-0.878C21.144,92.751,23.841,88.483,24.636,86.267z"/>
		
			<path fill="none" stroke="#3D2150" stroke-width="0.1844" stroke-linecap="round" stroke-linejoin="round" stroke-miterlimit="10" d="
			M33.957,78.925c0.789-0.58,1.348-1.443,1.6-2.465c0.098-0.398,0.149-0.819,0.149-1.257L35.66,73.91"/>
		
			<path fill="none" stroke="#3D2150" stroke-width="0.1844" stroke-linecap="round" stroke-linejoin="round" stroke-miterlimit="10" d="
			M27.124,70.419c-0.936,0.837-1.526,2.054-1.526,3.41v0.004v1.304c0,0.497,0.079,0.974,0.225,1.421
			c0.456,1.395,1.564,2.494,2.964,2.938c0.378,0.12,0.778,0.192,1.191,0.208c0.063,0.003,0.127,0.004,0.191,0.004h1.307
			c0.119,0,0.235-0.004,0.349-0.013c0.817-0.061,1.539-0.335,2.129-0.77"/>
		
			<path fill="none" stroke="#3D2150" stroke-width="0.1844" stroke-linecap="round" stroke-linejoin="round" stroke-miterlimit="10" d="
			M35.659,73.91L35.659,73.91c0.144-0.051,0.297-0.078,0.457-0.078c0.086,0,0.17,0.008,0.252,0.023
			c0.637,0.118,1.12,0.676,1.12,1.347c0,0.758-0.614,1.372-1.372,1.372c-0.189,0-0.37-0.038-0.534-0.108"/>
		
			<path fill="none" stroke="#3D2150" stroke-width="0.1844" stroke-linecap="round" stroke-linejoin="round" stroke-miterlimit="10" d="
			M25.823,76.557c-0.073,0.012-0.148,0.018-0.225,0.018c-0.757,0-1.371-0.614-1.371-1.372c0-0.633,0.428-1.166,1.011-1.323
			c0.114-0.031,0.235-0.048,0.36-0.048"/>
		
			<path fill="none" stroke="#3D2150" stroke-width="0.1844" stroke-linecap="round" stroke-linejoin="round" stroke-miterlimit="10" d="
			M29.979,79.7v0.004v1.153c0,0,1.21,1.011,2.079,0v-1.148"/>
		
			<path fill="none" stroke="#230031" stroke-width="0.1844" stroke-linecap="round" stroke-linejoin="round" stroke-miterlimit="10" d="
			M26.97,67.889c0,0,0.001-0.001,0.002-0.003c0.021-0.037,0.281-0.508-0.22-0.456c-0.52,0.054-1.977,1.402-1.518,2.508
			c0.047,0.113,0.108,0.207,0.182,0.285c0.388,0.413,1.106,0.366,1.71,0.195c0,0,0,0,0.001-0.001
			c0.397-0.112,0.746-0.279,0.919-0.404"/>
		
			<path fill="none" stroke="#230031" stroke-width="0.1844" stroke-linecap="round" stroke-linejoin="round" stroke-miterlimit="10" d="
			M36.373,73.832c0,0,0.674-2.518-0.027-3.515c-0.702-0.998-1.6-0.558-1.6-0.558s0.926-1.223-0.18-1.978
			c-1.106-0.756-4.342-0.27-4.342-0.27s0.081-0.702-0.566-0.756c-0.648-0.054-1.189,0.756-1.189,0.756s0.271-0.567-0.241-0.62
			c-0.497-0.052-1.212,0.935-1.256,0.995"/>
		
			<path fill="none" stroke="#230031" stroke-width="0.1844" stroke-linecap="round" stroke-linejoin="round" stroke-miterlimit="10" d="
			M28.902,68.213c-0.229,0.717,0.129,1.17,0.761,1.453c1.604,0.716,4.97,0.327,4.97,0.327s0.031,2.533,1.027,3.917"/>
		
			<path fill="none" stroke="#230031" stroke-width="0.1844" stroke-linecap="round" stroke-linejoin="round" stroke-miterlimit="10" d="
			M29.657,69.681c0,0-0.967,0.449-1.608,0.271c-0.398-0.11-0.671-0.461-0.512-1.306"/>
		
			<path fill="none" stroke="#230031" stroke-width="0.1844" stroke-linecap="round" stroke-linejoin="round" stroke-miterlimit="10" d="
			M25.389,70.292c0,0-0.965,0.406-0.15,3.588"/>
		
			<path fill="none" stroke="#3D2150" stroke-width="0.1844" stroke-linecap="round" stroke-linejoin="round" stroke-miterlimit="10" d="
			M29.979,80.856c0,0-0.757-0.331-1.543-0.284c-0.313,0.019-0.632,0.099-0.909,0.284c-0.971,0.647-3.628,4.06-3.486,4.383
			c0.057,0.128,0.285,0.551,0.615,1.027c0.36,0.519,0.842,1.101,1.353,1.43c0.196,0.126,0.396,0.215,0.595,0.249l1.302-3.013"/>
		
			<path fill="none" stroke="#3D2150" stroke-width="0.1844" stroke-linecap="round" stroke-linejoin="round" stroke-miterlimit="10" d="
			M27.959,84.009c0,0-0.02,0.37-0.053,0.924c-0.066,1.128-0.182,3.02-0.278,4.109c-0.141,1.625-0.415,4.376-0.415,4.376
			s0.233,0.148,0.651,0.345c0.904,0.427,2.67,1.088,4.801,0.999c2.142-0.089,3.48-0.94,4.107-1.463
			c0.285-0.237,0.424-0.408,0.424-0.408l-0.579-3.103v-0.001"/>
		
			<path fill="none" stroke="#3D2150" stroke-width="0.1844" stroke-linecap="round" stroke-linejoin="round" stroke-miterlimit="10" d="
			M35.909,81.307c0.07,0.072,0.14,0.149,0.208,0.231c1.695,2.035,2.05,2.905,2.087,3.006c0.003,0.006,0.004,0.01,0.004,0.01
			s-0.161,0.243-0.463,0.512c-0.41,0.364-1.08,0.776-1.965,0.691"/>
		
			<path fill="none" stroke="#3D2150" stroke-width="0.1844" stroke-linecap="round" stroke-linejoin="round" stroke-miterlimit="10" d="
			M32.058,80.856c0,0,0.328-0.217,0.835-0.365c0.385-0.112,0.872-0.184,1.396-0.09c0.524,0.093,1.087,0.353,1.619,0.904"/>
		
			<path fill="none" stroke="#3D2150" stroke-width="0.1844" stroke-linecap="round" stroke-linejoin="round" stroke-miterlimit="10" d="
			M35.294,83.202c0,0,0.223,1.361,0.463,2.56c0.124,0.617,0.253,1.191,0.359,1.515"/>
		
			<path fill="none" stroke="#3D2150" stroke-width="0.1844" stroke-linecap="round" stroke-linejoin="round" stroke-miterlimit="10" d="
			M32.786,84.009c0,0,0-0.001-0.001-0.003c-0.015-0.056-0.249-0.943,0.025-0.943c0.284,0,0.569,0.946,0.569,0.946
			s0.411-0.313,0.675-0.232c0.263,0.081,0.134,0.89,0,1.239c0,0,0.645,1.186,2.062,2.26c0.196,0.149,0.407,0.296,0.634,0.437"/>
		
			<path fill="none" stroke="#3D2150" stroke-width="0.1844" stroke-linecap="round" stroke-linejoin="round" stroke-miterlimit="10" d="
			M32.204,84.423c0,0,0-0.001-0.001-0.002c-0.021-0.051-0.462-1.16-0.146-1.219c0.168-0.031,0.36,0.189,0.504,0.408
			c0.124,0.189,0.213,0.374,0.224,0.397"/>
		
			<path fill="none" stroke="#3D2150" stroke-width="0.1844" stroke-linecap="round" stroke-linejoin="round" stroke-miterlimit="10" d="
			M37.745,85.066c0.295,0.631,1.494,3.338,0.746,4.209c-0.44,0.511-1.097,0.687-1.875,0.514c-0.725-0.161-1.556-0.623-2.415-1.399
			c-1.779-1.607-2.993-4.08-2.751-4.381c0.236-0.293,0.727,0.377,0.752,0.412"/>
		
			<path fill="none" stroke="#3D2150" stroke-width="0.1844" stroke-linecap="round" stroke-linejoin="round" stroke-miterlimit="10" d="
			M27.864,93.763l-0.593,7.864c0,0,0.55,0.365,1.32,0.599c0.573,0.174,1.265,0.275,1.944,0.102c0.291-0.073,0.579-0.197,0.853-0.387
			l-0.089-5.279v-0.014"/>
		
			<path fill="none" stroke="#3D2150" stroke-width="0.1844" stroke-linecap="round" stroke-linejoin="round" stroke-miterlimit="10" d="
			M30.809,96.505c0,0,0.176,0.077,0.49,0.156c0.495,0.124,1.331,0.255,2.354,0.1c0.212-0.031,0.432-0.076,0.659-0.134"/>
		
			<path fill="none" stroke="#3D2150" stroke-width="0.1844" stroke-linecap="round" stroke-linejoin="round" stroke-miterlimit="10" d="
			M33.654,96.762l0.338,5.201c0,0,0.374,0.116,0.921,0.208c0.588,0.098,1.375,0.168,2.113,0.033
			c0.592-0.107,1.151-0.347,1.548-0.809c0,0-0.91-4.39-1.388-6.754c-0.128-0.633-0.224-1.12-0.264-1.339"/>
		
			<path fill="none" stroke="#3D2150" stroke-width="0.1844" stroke-linecap="round" stroke-linejoin="round" stroke-miterlimit="10" d="
			M34.054,83.777c0,0-0.336-2.321,0.235-3.375"/>
		
			<path fill="none" stroke="#3D2150" stroke-width="0.1844" stroke-linecap="round" stroke-linejoin="round" stroke-miterlimit="10" d="
			M32.561,83.609c0,0-0.152-1.951,0.332-3.118"/>
		
			<path fill="none" stroke="#3D2150" stroke-width="0.1844" stroke-linecap="round" stroke-linejoin="round" stroke-miterlimit="10" d="
			M28.436,80.568c0,0,0.084-0.999,0.352-1.073"/>
		
			<path fill="none" stroke="#3D2150" stroke-width="0.1844" stroke-linecap="round" stroke-linejoin="round" stroke-miterlimit="10" d="
			M33.956,78.925C33.956,78.925,33.956,78.925,33.956,78.925c0.066-0.011,3.301-0.535,3.533,1.433
			c0.026,0.225,0.088,0.549,0.176,0.948c0.179,0.813,0.463,1.941,0.767,3.183c0.86,3.522,1.865,7.968,1.017,8.813
			c-1.295,1.29-2.263,1.339-2.263,1.339"/>
		
			<path fill="none" stroke="#3D2150" stroke-width="0.1844" stroke-linecap="round" stroke-linejoin="round" stroke-miterlimit="10" d="
			M37.665,81.306c0,0-0.519,0.806-1.756,0.001l-0.001-0.001"/>
		
			<path fill="none" stroke="#3D2150" stroke-width="0.1844" stroke-linecap="round" stroke-linejoin="round" stroke-miterlimit="10" d="
			M28.315,113.058c0.212-0.113,0.357-0.181,0.357-0.181c0.022-0.296,0.034-0.803,0.038-1.442c0.023-3.061-0.118-9.124-0.12-9.209
			v-0.001"/>
		
			<path fill="none" stroke="#3D2150" stroke-width="0.1844" stroke-linecap="round" stroke-linejoin="round" stroke-miterlimit="10" d="
			M30.535,102.279v0.049l0.017,9.243l0.003,1.614l-0.092,1.251c0,0-3.473,0.879-3.788,0.206c-0.172-0.368,0.442-0.861,1.033-1.233
			c0.22-0.138,0.435-0.259,0.607-0.351"/>
		
			<path fill="none" stroke="#3D2150" stroke-width="0.1844" stroke-linecap="round" stroke-linejoin="round" stroke-miterlimit="10" d="
			M28.707,111.434c0,0,0.001,0,0.003,0.001c0.059,0.021,1.149,0.408,1.841,0.136"/>
		
			<path fill="none" stroke="#3D2150" stroke-width="0.1844" stroke-linecap="round" stroke-linejoin="round" stroke-miterlimit="10" d="
			M28.672,112.876c0,0,1.039,0.733,1.882,0.309"/>
		
			<path fill="none" stroke="#3D2150" stroke-width="0.1844" stroke-linecap="round" stroke-linejoin="round" stroke-miterlimit="10" d="
			M28.601,112.871c0,0-0.108-1.014-0.498-0.881C27.712,112.124,28.601,112.871,28.601,112.871z"/>
		
			<path fill="none" stroke="#3D2150" stroke-width="0.1844" stroke-linecap="round" stroke-linejoin="round" stroke-miterlimit="10" d="
			M28.672,112.876c0,0,0.257-0.987,0.623-0.798C29.661,112.268,28.672,112.876,28.672,112.876z"/>
		
			<path fill="none" stroke="#3D2150" stroke-width="0.1844" stroke-linecap="round" stroke-linejoin="round" stroke-miterlimit="10" d="
			M34.912,102.17l0.274,9.178l0.048,1.614l0.129,1.248c0,0,3.497,0.777,3.792,0.095c0.161-0.373-0.466-0.848-1.068-1.202
			c-0.223-0.132-0.443-0.247-0.618-0.333c-0.216-0.106-0.362-0.171-0.362-0.171c-0.031-0.298-0.053-0.805-0.069-1.441
			c-0.077-3.023-0.01-8.933-0.01-8.933"/>
		
			<path fill="none" stroke="#3D2150" stroke-width="0.1844" stroke-linecap="round" stroke-linejoin="round" stroke-miterlimit="10" d="
			M37.028,111.158c0,0-1.12,0.449-1.839,0.19"/>
		
			<path fill="none" stroke="#3D2150" stroke-width="0.1844" stroke-linecap="round" stroke-linejoin="round" stroke-miterlimit="10" d="
			M37.107,112.599c0,0-1.018,0.763-1.873,0.363"/>
		
			<path fill="none" stroke="#3D2150" stroke-width="0.1844" stroke-linecap="round" stroke-linejoin="round" stroke-miterlimit="10" d="
			M37.177,112.591c0,0,0.079-1.017,0.473-0.894C38.044,111.819,37.177,112.591,37.177,112.591z"/>
		
			<path fill="none" stroke="#3D2150" stroke-width="0.1844" stroke-linecap="round" stroke-linejoin="round" stroke-miterlimit="10" d="
			M37.107,112.599c0,0-0.285-0.979-0.647-0.779C36.099,112.019,37.107,112.599,37.107,112.599z"/>
		
			<path fill="none" stroke="#3D2150" stroke-width="0.1844" stroke-linecap="round" stroke-linejoin="round" stroke-miterlimit="10" d="
			M21.118,92.824L21.118,92.824c0.046-0.073,2.743-4.342,3.538-6.557"/>
		
			<path fill="none" stroke="#3D2150" stroke-width="0.1844" stroke-linecap="round" stroke-linejoin="round" stroke-miterlimit="10" d="
			M22.611,93.81c0,0,0.003-0.005,0.01-0.016c0.187-0.306,3.037-4.972,3.387-6.097"/>
		<path fill="#D793A6" d="M30.644,72.313c0.755-0.001,0.886,2.983,0.544,3.361c-0.381,0.421-1.09,0.254-1.225-0.102
			C29.849,75.272,29.751,72.314,30.644,72.313z"/>
		
			<path fill="none" stroke="#3D2150" stroke-width="0.2766" stroke-linecap="round" stroke-linejoin="round" stroke-miterlimit="10" d="
			M32.246,76.284c0,0-0.438,0.614-1.366,0.614c-1.041,0-1.243-0.614-1.243-0.614"/>
		<path fill="#3C2C17" d="M34.077,71.882c0,0.371-1.938,0.147-1.861-0.324C32.327,70.877,34.077,71.231,34.077,71.882z"/>
		<path fill="#3C2C17" d="M27.18,71.949c0,0.371,1.938,0.147,1.861-0.324C28.93,70.944,27.18,71.299,27.18,71.949z"/>
		<path fill="#260734" d="M25.913,72.716c0,0,0.165,0.045,0.36,0c0.195-0.045,1.012-0.434,1.792-0.388
			c0.779,0.046,1.042,0.226,1.236,0.338c0.195,0.113,0.359,0.24,0.457,0.255c0.098,0.015,0.094-0.112,0.24-0.113
			c0.146,0,1.231-0.016,1.292,0.001c0.062,0.017,0.169,0.126,0.242,0.114c0.073-0.013,0.383-0.327,1.051-0.484
			c0.669-0.157,1.343-0.066,1.843,0.08c0.5,0.146,0.624,0.18,0.736,0.197c0.112,0.017,0.259,0,0.264,0.045
			c0.005,0.045,0.045,0.331,0,0.365c-0.045,0.033-0.331,0.09-0.349,0.196c-0.017,0.107-0.046,0.674-0.226,1.163
			c-0.18,0.489-0.726,1.343-1.777,1.302c-1.051-0.04-1.396-0.59-1.665-0.998c-0.218-0.332-0.134-0.593-0.149-0.746
			c-0.022-0.214,0-0.392-0.044-0.561c-0.045-0.169-0.354-0.214-0.607-0.209c-0.253,0.006-0.551,0.022-0.551,0.213
			c0,0.191-0.014,0.456-0.02,0.557c-0.012,0.213-0.079,0.69-0.617,1.253c-0.409,0.428-1.097,0.539-1.574,0.426
			c-0.478-0.113-1.09-0.327-1.393-1.148c-0.303-0.821-0.134-1.152-0.274-1.304c-0.14-0.152-0.253-0.062-0.309-0.158
			C25.815,73.019,25.786,72.697,25.913,72.716z"/>
		<path fill="#000021" d="M31.583,73.538c0.233-0.773,1.152-0.973,1.666-0.967c0.514,0.006,1.333,0.234,1.443,1.03
			c0.11,0.797-0.515,1.941-1.523,1.94C32.161,75.541,31.217,74.755,31.583,73.538z"/>
		<path fill="#000021" d="M29.633,73.53c-0.231-0.773-1.15-0.974-1.664-0.969c-0.515,0.005-1.333,0.231-1.445,1.028
			c-0.111,0.796,0.512,1.942,1.52,1.943C29.051,75.532,29.997,74.747,29.633,73.53z"/>
		<path fill="#88858C" d="M31.583,73.538c0.233-0.773,1.152-0.973,1.666-0.967c0.514,0.006,1.333,0.234,1.443,1.03
			c0.11,0.797-0.515,1.941-1.523,1.94C32.161,75.541,31.217,74.755,31.583,73.538z"/>
		<path fill="#88858C" d="M29.633,73.53c-0.231-0.773-1.15-0.974-1.664-0.969c-0.515,0.005-1.333,0.231-1.445,1.028
			c-0.111,0.796,0.512,1.942,1.52,1.943C29.051,75.532,29.997,74.747,29.633,73.53z"/>
		<g opacity="0.2">
			<defs>
				<path id="SVGID_1_" opacity="0.2" d="M31.583,73.538c0.233-0.773,1.152-0.973,1.666-0.967c0.514,0.006,1.333,0.234,1.443,1.03
					c0.11,0.797-0.515,1.941-1.523,1.94C32.161,75.541,31.217,74.755,31.583,73.538z"/>
			</defs>
			<clipPath id="SVGID_2_">
				<use xlink:href="#SVGID_1_"  overflow="visible"/>
			</clipPath>
			
				<linearGradient id="SVGID_3_" gradientUnits="userSpaceOnUse" x1="-651.476" y1="-80.2458" x2="-654.1597" y2="-77.3378" gradientTransform="matrix(-0.9693 -0.2459 -0.0935 0.3681 -606.7562 -58.3833)">
				<stop  offset="0" style="stop-color:#FFFFFF"/>
				<stop  offset="1" style="stop-color:#FFFFFF;stop-opacity:0.1"/>
			</linearGradient>
			<polygon clip-path="url(#SVGID_2_)" fill="url(#SVGID_3_)" points="31.105,72.763 35.323,73.834 35.445,73.353 31.226,72.282 			
				"/>
			
				<linearGradient id="SVGID_4_" gradientUnits="userSpaceOnUse" x1="-650.7526" y1="-110.8128" x2="-653.4362" y2="-107.9049" gradientTransform="matrix(-0.9693 -0.2459 -0.0661 0.2604 -606.2101 -58.2258)">
				<stop  offset="0" style="stop-color:#FFFFFF"/>
				<stop  offset="1" style="stop-color:#FFFFFF;stop-opacity:0.1"/>
			</linearGradient>
			<polygon clip-path="url(#SVGID_2_)" fill="url(#SVGID_4_)" points="30.825,73.214 35.043,74.284 35.13,73.944 30.911,72.874 			
				"/>
		</g>
		<g opacity="0.2">
			<defs>
				<path id="SVGID_5_" opacity="0.2" d="M29.633,73.53c-0.231-0.773-1.15-0.974-1.664-0.969c-0.515,0.005-1.333,0.231-1.445,1.028
					c-0.111,0.796,0.512,1.942,1.52,1.943C29.051,75.532,29.997,74.747,29.633,73.53z"/>
			</defs>
			<clipPath id="SVGID_6_">
				<use xlink:href="#SVGID_5_"  overflow="visible"/>
			</clipPath>
			
				<linearGradient id="SVGID_7_" gradientUnits="userSpaceOnUse" x1="-646.6967" y1="-77.2666" x2="-649.3804" y2="-74.3586" gradientTransform="matrix(-0.9693 -0.2459 -0.0935 0.3681 -606.7562 -58.3833)">
				<stop  offset="0" style="stop-color:#FFFFFF"/>
				<stop  offset="1" style="stop-color:#FFFFFF;stop-opacity:0.1"/>
			</linearGradient>
			<polygon clip-path="url(#SVGID_6_)" fill="url(#SVGID_7_)" points="26.194,72.684 30.412,73.755 30.534,73.274 26.316,72.204 			
				"/>
			
				<linearGradient id="SVGID_8_" gradientUnits="userSpaceOnUse" x1="-645.9733" y1="-106.6011" x2="-648.6567" y2="-103.6934" gradientTransform="matrix(-0.9693 -0.2459 -0.0661 0.2604 -606.2101 -58.2258)">
				<stop  offset="0" style="stop-color:#FFFFFF"/>
				<stop  offset="1" style="stop-color:#FFFFFF;stop-opacity:0.1"/>
			</linearGradient>
			<polygon clip-path="url(#SVGID_6_)" fill="url(#SVGID_8_)" points="25.914,73.135 30.132,74.205 30.219,73.865 26,72.795 			"/>
		</g>
	</g>
	<line fill="none" stroke="#FFFFFF" stroke-miterlimit="10" x1="22.5" y1="49.904" x2="55.5" y2="49.904"/>
	<line fill="none" stroke="#FFFFFF" stroke-miterlimit="10" x1="22.5" y1="117.904" x2="55.5" y2="117.904"/>
	<path fill="none" stroke="#FFFFFF" stroke-width="3" stroke-miterlimit="10" d="M57.189,52.904H21.311c0,0-14.433,13.268-14.433,31
		c0,18.832,14.433,31,14.433,31h35.877c0,0,14.433-12.168,14.433-31C71.622,66.171,57.189,52.904,57.189,52.904z"/>
	<line fill="none" stroke="#FFFFFF" stroke-width="2" stroke-miterlimit="10" x1="21.5" y1="54.404" x2="21.5" y2="116.404"/>
	<path fill="#F45B5B" d="M59.704,47.404c-1.107-2.595-2.004-4.538-3.255-7.038l-33.112-0.579c-1.251,2.5-2.435,5.022-3.542,7.617
		H59.704z"/>
	<path fill="#F45B5B" d="M39.5,149.404c20.667-19.333,21-27,21-27h-21h-21C18.5,122.404,18.5,130.07,39.5,149.404z"/>
</g>
<g id="Fire">
	<path fill="#E6AC47" d="M24.596,39.067l13.994,0.168l13.995,0.168c0,0,11.375-5.437,5.976-18.768c0,0-3.327,5.647-8.104,4.251
		c0,0,0.787-17.605-11.395-24.887c-12.354,6.987-11.99,24.606-11.99,24.606c-4.808,1.28-7.998-4.445-7.998-4.445
		C13.354,33.358,24.596,39.067,24.596,39.067z"/>
	<path fill="#F6EB41" d="M27.578,39.103l11.013,0.132l11.012,0.132c0,0,11.626-4.247,7.377-14.736c0,0-5.293,4.411-9.05,3.312
		c0,0,0.619-13.854-8.968-19.584c-9.722,5.498-9.436,19.363-9.436,19.363c-3.784,1.009-9.159-3.531-9.159-3.531
		C15.867,34.576,27.578,39.103,27.578,39.103z"/>
	<path fill="#F0F0F0" d="M31.561,39.151l6.996,0.084l6.998,0.084c0,0,7.385-2.698,4.686-9.363c0,0-3.362,2.802-5.749,2.105
		c0,0,0.393-8.803-5.699-12.443c-6.177,3.493-5.995,12.302-5.995,12.302c-2.403,0.64-5.82-2.244-5.82-2.244
		C24.119,36.275,31.561,39.151,31.561,39.151z"/>
</g>
</svg>
